# Blender v2.90.1 OBJ File: ''
# www.blender.org
mtllib untitled.mtl
o Circle_Circle.001
v 0.000000 0.000000 0.000000
v 0.000000 0.000000 -1.000000
v -0.866025 0.000000 -0.500000
v -0.866025 0.000000 0.500000
v 0.000000 0.000000 1.000000
v 0.866025 0.000000 0.500000
v 0.866025 0.000000 -0.500000
v 0.000000 0.500000 0.000000
v 0.000000 0.500000 -1.000000
v -0.866025 0.500000 -0.500000
v -0.866025 0.500000 0.500000
v 0.000000 0.500000 1.000000
v 0.866025 0.500000 0.500000
v 0.866025 0.500000 -0.500000
vt 0.195312 0.632812
vt 0.386719 0.746094
vt 0.195312 0.859375
vt 0.386719 0.523438
vt 0.195312 0.410156
vt 0.000000 0.523438
vt 0.000000 0.746094
vt 0.695312 0.632812
vt 0.695312 0.859375
vt 0.500000 0.746094
vt 0.500000 0.523438
vt 0.695312 0.410156
vt 0.886719 0.523438
vt 0.886719 0.746094
vt 0.945312 0.843750
vt 0.750000 0.953125
vt 0.636719 0.953125
vt 0.445312 0.843750
vt 1.000000 0.523438
vt 1.000000 0.746094
vt 0.750000 0.312500
vt 0.945312 0.425781
vt 0.445312 0.425781
vt 0.636719 0.312500
vn 0.0000 -1.0000 0.0000
vn 0.0000 1.0000 0.0000
vn 0.5000 0.0000 -0.8660
vn -0.5000 0.0000 -0.8660
vn 1.0000 0.0000 0.0000
vn 0.5000 0.0000 0.8660
vn -0.5000 0.0000 0.8660
vn -1.0000 0.0000 0.0000
usemtl None
s off
f 1/1/1 3/2/1 2/3/1
f 1/1/1 4/4/1 3/2/1
f 1/1/1 5/5/1 4/4/1
f 1/1/1 6/6/1 5/5/1
f 1/1/1 7/7/1 6/6/1
f 1/1/1 2/3/1 7/7/1
f 8/8/2 9/9/2 10/10/2
f 8/8/2 10/10/2 11/11/2
f 8/8/2 11/11/2 12/12/2
f 8/8/2 12/12/2 13/13/2
f 8/8/2 13/13/2 14/14/2
f 8/8/2 14/14/2 9/9/2
f 7/15/3 2/16/3 9/9/3 14/14/3
f 2/17/4 3/18/4 10/10/4 9/9/4
f 6/19/5 7/20/5 14/14/5 13/13/5
f 5/21/6 6/22/6 13/13/6 12/12/6
f 4/23/7 5/24/7 12/12/7 11/11/7
f 3/2/8 4/4/8 11/11/8 10/10/8
